#!OML:ASF E:\Style4\Style4.ASF
:FULLY-SPECIFIED
:DEGREES
3037
root -0.0802004 17.8038 -1.67204 -0.263255 -0.538095 3.47959
lowerback 8.59209 4.0807 -1.71026
upperback 4.78242 5.28738 -0.257725
thorax 0.0230429 2.61712 0.241446
lowerneck 0.600621 -5.56184 -5.28311
upperneck 6.94613 -7.66092 5.21413
head 2.5758 -3.82113 2.43321
rclavicle 3.47873e-014 -1.35174e-014
rhumerus -17.9611 18.9889 -82.0786
rradius 107.259
rwrist -33.8329
rhand -29.2848 27.0288
rfingers 7.12502
rthumb -2.62681 -2.93473
lclavicle 3.47873e-014 -1.35174e-014
lhumerus -62.2438 -29.5687 103.254
lradius 100.626
lwrist 25.2645
lhand -9.16292 19.2356
lfingers 7.12502
lthumb 16.7896 48.5297
rfemur -14.2073 2.67427 15.0622
rtibia 32.8233
rfoot -17.2107 -12.9877
rtoes -10.9756
lfemur -11.4482 -1.41777 -22.2834
ltibia 28.0796
lfoot -16.8599 9.38914
ltoes -14.3668
3038
root -0.085771 17.8018 -1.6716 -0.313013 -0.371613 3.53997
lowerback 8.59241 4.04749 -1.69884
upperback 4.80717 5.24489 -0.24643
thorax 0.0491511 2.59587 0.251595
lowerneck 0.654829 -5.58927 -5.34238
upperneck 7.05646 -7.7011 5.19557
head 2.60752 -3.8433 2.43709
rclavicle -1.44119e-014 4.77083e-015
rhumerus -18.7178 18.9727 -82.5077
rradius 107.13
rwrist -33.9353
rhand -29.451 26.7793
rfingers 7.12502
rthumb -2.78724 -3.18225
lclavicle -1.44119e-014 4.77083e-015
lhumerus -62.2559 -29.6312 103.328
lradius 100.668
lwrist 25.235
lhand -9.64188 18.946
lfingers 7.12502
lthumb 16.3285 48.2785
rfemur -14.1789 2.57629 15.0139
rtibia 32.9339
rfoot -17.3297 -13.0338
rtoes -10.8738
lfemur -11.3994 -1.47208 -22.3361
ltibia 28.0643
lfoot -16.7065 9.36104
ltoes -14.9384
3039
root -0.0890641 17.7997 -1.67198 -0.345973 -0.230311 3.63191
lowerback 8.59638 4.01186 -1.74964
upperback 4.82197 5.19443 -0.228101
thorax 0.0570917 2.56949 0.303114
lowerneck 0.716872 -5.591 -5.41073
upperneck 7.12523 -7.70641 5.1863
head 2.62272 -3.84849 2.44735
rclavicle -1.99779e-014 2.18663e-014
rhumerus -19.4781 19.0572 -82.9556
rradius 106.976
rwrist -34.0457
rhand -29.7592 26.7957
rfingers 7.12502
rthumb -3.08489 -3.16178
lclavicle -1.99779e-014 2.18663e-014
lhumerus -62.273 -29.6034 103.412
lradius 100.711
lwrist 25.1139
lhand -9.99869 18.5555
lfingers 7.12502
lthumb 15.9849 47.916
rfemur -14.1463 2.45671 14.9144
rtibia 32.9991
rfoot -17.4329 -13.0036
rtoes -10.4614
lfemur -11.3768 -1.54894 -22.4266
ltibia 28.0693
lfoot -16.6611 9.27159
ltoes -14.7802
3040
root -0.0920034 17.798 -1.67322 -0.346114 -0.105193 3.69451
lowerback 8.59138 3.96241 -1.77246
upperback 4.83322 5.12775 -0.216964
thorax 0.0697301 2.53557 0.333829
lowerneck 0.756894 -5.57177 -5.4537
upperneck 7.15723 -7.68144 5.16805
head 2.6259 -3.83804 2.45066
rclavicle -1.49089e-014 4.37326e-015
rhumerus -20.1877 19.1504 -83.4645
rradius 106.814
rwrist -34.0796
rhand -29.9314 26.8082
rfingers 7.12502
rthumb -3.25119 -3.1468
lclavicle -1.49089e-014 4.37326e-015
lhumerus -62.1738 -29.5668 103.388
lradius 100.711
lwrist 25.0383
lhand -10.0801 18.1629
lfingers 7.12502
lthumb 15.9066 47.5297
rfemur -14.1455 2.34647 14.8504
rtibia 33.0505
rfoot -17.4672 -13.0196
rtoes -10.2871
lfemur -11.3808 -1.61008 -22.4869
ltibia 28.0536
lfoot -16.6553 9.19976
ltoes -14.6165
3041
root -0.0942559 17.797 -1.67111 -0.372585 -0.0157501 3.6437
lowerback 8.56806 3.91698 -1.63866
upperback 4.84766 5.07836 -0.18572
thorax 0.106731 2.51281 0.298785
lowerneck 0.875053 -5.55114 -5.52717
upperneck 7.15733 -7.65831 5.1773
head 2.60728 -3.82985 2.47097
rclavicle -2.33572e-014 -7.95139e-016
rhumerus -20.9459 19.2074 -83.9685
rradius 106.704
rwrist -34.0254
rhand -30.0158 26.7413
rfingers 7.12502
rthumb -3.33276 -3.21243
lclavicle -2.33572e-014 -7.95139e-016
lhumerus -62.1201 -29.5886 103.343
lradius 100.719
lwrist 24.993
lhand -9.9667 18.0007
lfingers 7.12502
lthumb 16.0157 47.3587
rfemur -14.0963 2.254 14.9162
rtibia 33.0964
rfoot -17.5622 -13.0137
rtoes -10.2732
lfemur -11.3188 -1.66356 -22.4272
ltibia 28.0133
lfoot -16.6114 9.17394
ltoes -14.8469
3042
root -0.0953108 17.7967 -1.66345 -0.405831 0.0474079 3.68892
lowerback 8.46333 3.89893 -1.58606
upperback 4.89097 5.06153 -0.18128
thorax 0.213231 2.50478 0.285419
lowerneck 0.921728 -5.55247 -5.54297
upperneck 7.20868 -7.65971 5.12267
head 2.61401 -3.8326 2.45633
rclavicle 1.47101e-014 2.78299e-015
rhumerus -21.7084 19.1706 -84.4424
rradius 106.613
rwrist -33.9686
rhand -29.9636 26.7128
rfingers 7.12502
rthumb -3.28228 -3.24167
lclavicle 1.47101e-014 2.78299e-015
lhumerus -62.1155 -29.6713 103.344
lradius 100.738
lwrist 24.9886
lhand -10.029 18.0031
lfingers 7.12502
lthumb 15.9557 47.3659
rfemur -14.018 2.10157 14.8647
rtibia 33.1527
rfoot -17.6635 -12.9381
rtoes -10.5113
lfemur -11.2041 -1.70938 -22.4855
ltibia 27.9471
lfoot -16.6589 9.23881
ltoes -15.3923
3043
root -0.0985143 17.7946 -1.65839 -0.469765 0.167681 3.84603
lowerback 8.42511 3.87071 -1.67236
upperback 4.93879 5.01967 -0.221158
thorax 0.280884 2.48228 0.300677
lowerneck 0.83453 -5.57968 -5.46789
upperneck 7.3786 -7.69 4.99578
head 2.67826 -3.84686 2.39569
rclavicle -6.45056e-014 1.07344e-014
rhumerus -22.4164 19.1462 -84.8997
rradius 106.496
rwrist -33.8368
rhand -29.9167 26.7687
rfingers 7.12502
rthumb -3.23706 -3.18645
lclavicle -6.45056e-014 1.07344e-014
lhumerus -62.0755 -29.7503 103.291
lradius 100.759
lwrist 24.9954
lhand -10.1176 18.0455
lfingers 7.12502
lthumb 15.8704 47.4151
rfemur -13.9342 1.9425 14.6892
rtibia 33.2251
rfoot -17.7212 -12.9357
rtoes -10.465
lfemur -11.0771 -1.78094 -22.6592
ltibia 27.8709
lfoot -16.6656 9.25424
ltoes -15.7497
3044
root -0.104705 17.7931 -1.65702 -0.474775 0.302034 4.02082
lowerback 8.38998 3.84867 -1.83489
upperback 4.96634 4.98056 -0.24632
thorax 0.318282 2.45957 0.371564
lowerneck 0.783148 -5.60808 -5.42394
upperneck 7.45947 -7.72269 4.90648
head 2.70978 -3.86305 2.35481
rclavicle 9.0447e-015 7.95139e-016
rhumerus -23.1016 19.21 -85.3028
rradius 106.412
rwrist -33.6805
rhand -30.0504 26.9282
rfingers 7.12502
rthumb -3.36616 -3.02502
lclavicle 9.0447e-015 7.95139e-016
lhumerus -61.9786 -29.7838 103.217
lradius 100.79
lwrist 25.0195
lhand -10.1411 18.1221
lfingers 7.12502
lthumb 15.8478 47.4935
rfemur -13.9548 1.83668 14.5064
rtibia 33.3398
rfoot -17.8162 -12.9615
rtoes -10.3131
lfemur -11.0354 -1.85898 -22.83
ltibia 27.7745
lfoot -16.5479 9.15638
ltoes -15.5428
